<?xml version="1.0" encoding="utf-8" ?><svg xmlns="http://www.w3.org/2000/svg" xmlns:xlink="http://www.w3.org/1999/xlink" width="3774" height="685" viewBox="0 0 3774 685"><path fill="#00363E" d="M82.4945 243.549C114.657 221.235 141.149 205.902 181.68 206.412C194.703 206.576 203.325 205.536 215.517 210.85C219.295 212.497 229.402 212.734 233.758 214.677C346.141 262.524 357.808 456.407 259.622 523.824C219.596 551.307 159.606 554.829 114.636 538.345C109.685 536.595 96.3557 529.242 92.359 529.602C90.7494 534.915 93.9533 552.367 93.6408 558.464C92.8112 574.646 99.5268 670.476 91.4461 677.62C83.4693 681.32 21.6389 681.199 13.477 675.443L12.7964 674.957C8.77827 668.833 10.0445 650.366 10.0428 642.36L10.0523 591.659L10.3237 381.408L10.4782 318.828C10.5277 292.888 11.4557 273.494 6.03861 247.924C5.92732 242.681 5.65049 237.665 5.15488 232.543C4.70707 227.914 3.76922 218.224 6.89839 214.664C10.9998 209.998 22.3341 210.024 28.0277 210.071C42.5372 210.327 57.5417 210.234 72.1336 210.994C73.9541 213.147 75.8351 215.315 77.538 217.557C78.9333 227.618 79.536 233.748 82.4945 243.549ZM235.135 440.163C241.909 435.99 243.216 397.465 243.266 388.679C246.694 361.119 238.87 315.902 220.555 293.296C207.091 276.678 193.631 271.99 172.954 267.649C149.659 262.758 103.392 287.723 91.594 308.188C90.2493 319.648 90.4957 334.511 90.6381 347.432C91.0139 381.542 89.5134 429.145 91.1978 462.116C92.0263 478.334 139.296 494.633 153.263 494.428C176.468 497.329 192.463 491.372 210.492 478.602C221.001 470.9 232.818 453.005 235.135 440.163Z"/><path fill="#FBFFFF" fill-opacity="0.011764706" d="M235.135 440.163C237.331 424.597 232.845 404.328 243.266 388.679C243.216 397.465 241.909 435.99 235.135 440.163Z"/><path fill="#00363E" d="M369.115 351.537C369.669 341.446 372.385 333.44 375.044 323.797C396.151 247.249 460.438 205.383 538.944 210.932C630.925 217.434 669.432 287.291 665.593 372.401C665.163 381.92 663.993 393.639 657.893 401.377C650.369 406.041 608.938 403.799 597.504 403.732L509.198 403.539C503.249 403.524 446.846 401.387 447.198 406.976C448.164 422.361 456.147 444.115 464.506 457.745C475.517 475.365 494.81 486.242 513.677 490.506C542.622 497.048 590.057 492.581 615.232 476.503C622.124 472.102 627.207 467.37 635.629 466.583C638.651 467.299 641.953 470.395 643.525 473.658C649.066 485.162 657.49 501.95 656.572 514.844C656.31 518.532 646.796 525.999 643.662 527.353C595.509 551.906 527.056 554.062 475.775 540.68C437.453 530.679 409.199 507.353 390.276 473.512C381.39 457.621 369.959 429.712 369.308 411.617C365.417 390.602 364.573 372.456 369.115 351.537ZM445.926 350.615C469.854 353.358 503.494 351.47 528.25 351.611C538.851 351.739 581.474 354.22 588.314 350.231C593.167 343.128 590.748 329.65 589.253 321.542C585.921 303.467 576.724 286.828 561.384 276.3C545.752 265.57 528.73 265.652 510.616 267.376C488.689 273.21 472.532 282.042 460.726 302.263C452.824 315.797 447.098 334.81 445.926 350.615Z"/><path fill="#00363E" d="M2437.45 203.539C2508.21 197.311 2582.27 215.889 2588.88 297.882C2590.04 312.302 2589.77 326.283 2589.81 340.696L2589.98 422.131C2590.04 433.599 2589.18 454.616 2593.28 464.919C2598.46 477.932 2618.3 474.872 2625.02 484.379C2630.48 492.123 2627.61 508.198 2625.74 517.219C2604.71 533.297 2547.65 529.998 2531.55 507.438C2528.34 502.947 2524.54 498.409 2520.71 494.466C2519.05 494.426 2501.97 505.957 2498.63 508.215C2465.88 530.389 2389.72 534.282 2357.76 509.115L2357.52 508.963C2323.95 487.79 2309.35 429.812 2330.89 396.015C2359.98 350.389 2416.83 343.304 2465.95 339.307C2477.81 338.341 2503.5 342.141 2513.09 340.01C2519.59 332.977 2514.14 307.079 2511.52 298.264C2497.64 251.616 2432.89 264.861 2398.69 276.888C2383.06 282.381 2362.77 304.788 2350.52 280.561C2346.49 274.148 2332.47 243.281 2338.51 236.893C2356.09 218.293 2417.66 207.834 2437.45 203.539ZM2425.08 473.011C2438.86 480.844 2455.1 480.544 2470.01 476.451C2487.79 471.568 2502.46 463.617 2513.27 448.383C2514.91 436.751 2514.08 424.762 2514.56 413.034C2514.96 403.284 2516.88 392.927 2515.81 383.253C2511.86 379.782 2501.39 381.304 2496.26 381.52C2468.86 381.986 2429.63 380.554 2409.12 401.788C2401.08 410.109 2397.59 421.444 2397.89 432.87C2398.22 445.095 2403.93 456.129 2412.8 464.412C2416.57 467.931 2420.67 470.406 2425.08 473.011Z"/><path fill="#00363E" d="M3017.81 199.517C3043.54 197.666 3070.75 200.36 3094.27 211.525C3123.99 225.63 3146.68 252.226 3157.59 283.069C3165.09 304.258 3172.8 358.905 3162.94 378.744C3161.5 381.627 3160.52 383.05 3157.44 384.109C3144.13 388.679 3016.69 386.651 2994.31 386.62C2982.53 386.604 2965.22 384.477 2954.26 388.178C2948.41 396.438 2962.83 419.404 2967.08 427.511C2993.12 477.206 3047.25 477.631 3095.05 464.753C3110.02 460.718 3127.35 449.839 3142.81 450.51C3144.96 453.052 3158.87 480.733 3159.26 485.417C3159.57 489.059 3159.43 493.751 3156.74 496.437C3141.42 511.699 3100.28 523.56 3079.84 526.139C3040.93 531.048 3002.93 527.289 2966.63 513.435C2954.05 508.63 2940.13 498.171 2929.78 491.037C2897.87 469.066 2882.96 432.457 2878.88 394.67C2874.26 352.019 2879.09 295.963 2907 260.755C2939.36 219.941 2967.78 206.287 3017.81 199.517ZM3038.25 336.357C3047.83 336.432 3085.72 339.074 3092.09 332.92C3094.7 330.392 3095.44 326.744 3095.44 323.235C3095.41 305.229 3085.06 283.102 3072.41 270.694C3060.27 258.79 3045.14 254.296 3028.34 254.513C3023.19 254.583 3018.04 254.917 3012.92 255.513C2984.73 268.921 2971.88 273.929 2960.6 305.554C2958.12 312.495 2952.57 326.533 2955.24 333.454C2955.82 333.967 2956.61 334.871 2957.25 335.246C2960.47 337.117 3028.64 336.256 3038.25 336.357Z"/><path fill="#00363E" d="M937.513 311.474C937.304 307.374 930.538 299.821 927.527 297.147C895.779 268.953 842.156 287.844 814.279 312.909C806.236 320.142 809.15 367.504 809.219 380.76L809.805 495.517C809.863 508.19 811.013 525.057 808.28 537.135C807.089 542.399 780.666 539.883 775.688 540.263C765.017 541.078 741.127 544.367 732.218 538.206C728.641 533.462 729.921 481.611 729.833 472.442C729.173 400.1 731.52 327.575 725.64 255.395C725.185 249.81 722.084 226.658 727.143 223.928C741.295 216.29 769.677 219.286 785.117 219.552C796.87 219.754 795.023 253.068 799.482 260.559C798.906 260.539 838.339 235.888 842.983 233.266C909.392 195.771 1002.28 215.171 1020.17 298.04C1029.08 339.286 1022.72 389.56 1024.43 431.945C1025.16 445.311 1025.26 531.451 1021.8 537.327C1015.67 541.538 998.421 539.449 990.678 539.442C977.532 539.431 964 540.985 950.99 539.424C945.993 538.778 945.04 536.789 943.918 532.265C942.83 524.934 942.911 503.637 942.857 495.67L942.892 382.706C942.878 363.57 945.361 327.723 937.513 311.474Z"/><path fill="#00363E" d="M2146.84 204.294C2155.3 203.212 2164.57 203.639 2173.06 204.357C2199.3 206.574 2223.17 214.228 2240.66 235.041C2255.7 252.929 2263.52 276.209 2267.52 298.939C2270.75 317.339 2269.45 336.599 2269.39 355.22L2269.31 429.029L2269.32 480.737C2269.37 489.496 2270.22 498.62 2269.42 507.335C2269.14 510.363 2268.43 513.585 2265.96 515.584C2264.08 517.093 2261.65 517.651 2259.31 517.921C2253.04 518.642 2246.22 517.813 2239.89 517.877C2226.89 518.007 2212.71 519.407 2199.82 517.932C2193.43 517.2 2192.37 511.564 2191.54 506.049C2189.16 490.34 2190.62 472.483 2190.65 456.561L2191 360.995C2191.05 345.869 2191.81 327.953 2189.14 313.177C2184.85 292.062 2168.17 271.101 2145.66 269.342C2127.79 267.945 2095.2 273.804 2081.9 285.578C2073.49 292.28 2067.76 296.542 2061.49 305.496C2060.36 321.549 2060.94 344.013 2060.9 360.528L2060.85 457.054C2060.89 469.882 2061.83 501.709 2060.22 512.575C2054.52 518.817 2029.55 516.077 2020.5 516.312C2012.53 516.519 1989.69 517.644 1983.59 514.594C1981.18 508.422 1982.2 446.643 1982.18 436.449L1981.11 266.689C1980.86 245.823 1976.58 233.442 1978.27 210.731C1993.75 205.655 2022.77 207.394 2040.19 207.764C2050.54 217.981 2045.86 238.694 2052.63 244.491C2057.17 244.436 2089.59 222.421 2100.61 217.519C2123.25 207.459 2125.62 209.719 2146.84 204.294Z"/><path fill="#00363E" d="M1183.63 214.428C1187.34 214.3 1191.05 214.194 1194.77 214.111C1227.15 213.399 1283.61 215.589 1308.33 239.524C1311.12 242.229 1313.8 245.397 1313.83 249.478C1313.88 259.426 1299.7 283.58 1292.69 290.585C1291.76 291.52 1289.51 293.472 1288.1 293.573C1285.28 293.776 1268.67 283.623 1264.83 281.982C1248.66 275.073 1230.18 270.601 1212.59 270.816C1204.4 270.916 1189.25 271.156 1183.35 277.278C1179.21 281.564 1173.32 283.474 1169.17 287.734C1165.61 291.389 1164.61 297.121 1164.73 302.089C1165.45 333.065 1229.65 349.927 1253.23 360.274C1271.11 368.116 1289.22 376.977 1303.36 390.734C1320.71 407.436 1330.69 430.357 1331.1 454.432C1331.28 476.762 1321.12 498.843 1305.45 514.579C1280.61 539.515 1243.34 549.454 1208.93 549.637C1172.93 547.775 1134.03 543.921 1101.78 526.728C1097.86 524.637 1093.41 522.667 1090.05 519.729C1086.71 516.812 1084.96 513.179 1084.74 508.75C1084.13 496.532 1092.88 479.148 1101 470.38C1104.09 467.038 1108.1 464.376 1112.83 465.046C1119.07 465.931 1125.38 471.335 1131.09 474.039C1154.41 485.074 1180.43 493.387 1206.51 492.402C1221.08 491.851 1236.09 488.404 1246.21 477.038C1250.95 471.721 1253.68 462.338 1253.26 455.263C1251.28 422.041 1183.34 408.184 1156.94 396.408C1140.94 389.299 1126.11 379.787 1112.98 368.203C1100.47 357.011 1086.78 328.632 1085.86 311.563C1084.52 286.705 1093.7 265.781 1110.02 247.581C1128.46 227.024 1156.29 215.98 1183.63 214.428Z"/><path fill="#00363E" d="M2631.26 264.064C2630.96 263.487 2630.67 262.905 2630.38 262.32C2625.61 252.478 2624.54 219.623 2627.06 212.418C2634.64 204.455 2680.74 213.116 2684.08 205.413C2689.42 193.1 2681.79 124.002 2687.45 115.981C2707.01 107.704 2725.56 113.212 2746.24 110.694C2753.51 109.809 2756.94 112.324 2761.89 116.823C2762.76 130.052 2760.38 199.249 2763.31 205.472C2770.56 208.371 2809.81 207.79 2819.05 207.144L2819.73 208.706C2824.73 209.33 2841.77 207.776 2843.98 213.458C2847.18 221.648 2847.29 256.388 2840.72 262.136C2835.62 263.932 2821.77 263.617 2815.27 263.785C2803.13 263 2774.57 261.5 2763.21 267.124C2762.39 267.529 2762.21 273.287 2762.09 274.271C2762.01 322.376 2761.37 370.552 2762.19 418.643C2762.29 424.573 2764.82 439.948 2768.06 444.99C2785.59 472.234 2816.44 463.24 2843.15 461.995C2845.29 461.895 2850.44 463.909 2851.73 466.16C2870.87 509.91 2867.23 516.071 2821.03 523.066C2819.26 523.334 2812.37 524.224 2811.23 524.663C2801.7 526.679 2779.62 526.484 2769.75 525.396C2749.85 524.211 2727.23 518.162 2711.78 505.18C2680.95 479.289 2685.89 441.487 2686.04 405.691L2686.05 316.231C2686.02 301.001 2686.57 278.548 2685.31 263.817C2668.54 262.165 2648.72 264.723 2631.26 264.064Z"/><path fill="#F9A017" d="M3673.48 362.409C3684.97 362.25 3699.18 362.567 3708.73 369.74C3712.5 372.566 3715.88 376.096 3720.32 377.817C3721 377.301 3721.68 376.79 3722.37 376.282C3732.65 368.703 3743.85 364.095 3756.85 366.115C3762.98 367.067 3765.32 368.3 3768.95 373.282L3768.31 470.107C3768.06 488.036 3768.65 506.687 3766.04 524.438C3764.68 533.867 3761.9 543.034 3757.78 551.627C3749.76 568.213 3736.13 581.301 3718.61 587.386C3690.58 597.125 3649.69 593.562 3623.17 580.619C3619.66 578.905 3615.5 576.392 3614.27 572.463C3612.39 566.502 3616.13 560.609 3618.85 555.563C3619.83 554.179 3620.89 552.66 3622.25 551.623C3628.34 546.964 3657.83 557.247 3667.01 558.456C3680.18 560.192 3698.05 560.484 3709.11 551.837C3716.71 545.889 3720.82 536.655 3721.93 527.242C3722.56 521.89 3724.13 513.215 3720.62 508.745C3714.11 509.186 3706.63 517.287 3700.73 520.308C3694.25 523.622 3686.63 525.379 3679.41 525.924C3659.02 527.462 3638.01 521.111 3622.53 507.637C3605.9 493.159 3599.81 473.512 3598.43 452.061C3596.97 429.363 3601.26 404.933 3616.77 387.474C3631.29 371.124 3652.1 363.676 3673.48 362.409ZM3686.57 490.646C3696.23 490.179 3706.63 488.196 3713.43 480.695C3724.08 468.939 3721.52 437.952 3720.67 422.468C3720.39 417.441 3718.85 413.285 3717.13 408.602C3707.69 400.542 3695.49 395.436 3682.87 396.335C3670.52 399.878 3661.16 404.698 3654.69 416.307C3647.08 429.932 3646.17 450.117 3650.46 464.916C3653.11 474.034 3658.6 481.676 3667.04 486.219C3673.15 489.514 3679.72 490.498 3686.57 490.646Z"/><path fill="#1D8664" d="M1703.96 159.555C1747.4 157.767 1777.31 158.955 1817.99 177.722C1825.08 180.989 1837.14 186.693 1842.75 191.59L1843.44 192.075C1857.94 201.309 1867.57 209.619 1879.95 221.75L1891.58 235.379C1896.19 241.666 1900.9 247.953 1905.2 254.453C1913.5 268.68 1935.51 311.86 1933.92 327.7C1933.66 332.153 1934.14 349.332 1932.06 350.667C1917.23 360.185 1892.28 354.234 1877 357.405L1874.4 356.371C1871.63 345.289 1851.28 349.099 1844.1 344.679C1839.4 341.785 1840.69 331.125 1838.34 326.7C1830.62 312.129 1822.29 298.359 1811.15 286.193C1794.4 268.906 1784.67 260.799 1762.09 251.875C1760.04 250.334 1758.69 250.311 1756.16 249.919C1750.69 247.039 1738.55 244.969 1736.67 241.248C1731.15 230.304 1730.55 204.161 1730.78 193.059C1730.53 188.156 1731.01 170.41 1727.53 167.932C1726.75 168.593 1725.92 169.413 1725.01 169.811C1723.5 168.536 1723.3 166.597 1722.84 164.657C1723.95 172.134 1720.78 220.6 1721.23 221.373C1721.69 227.524 1721.13 238.73 1716.74 243.384C1712.61 247.755 1708.69 247.477 1702.75 248.285C1706 245.877 1708.12 246.617 1710.42 243.142C1708.47 239.188 1643.1 204.944 1634.01 200.048C1623.05 196.505 1616.23 188.852 1604.53 189.242C1606.05 187.673 1608.18 186.96 1609.99 185.859C1636.43 169.791 1666.97 163.26 1697.45 160.601C1699.89 160.388 1701.5 160.15 1703.96 159.555Z"/><path fill="#F62B1D" d="M1905.2 254.453C1913.5 268.68 1935.51 311.86 1933.92 327.7C1933.66 332.153 1934.14 349.332 1932.06 350.667C1917.23 360.185 1892.28 354.234 1877 357.405L1874.4 356.371C1871.63 345.289 1851.28 349.099 1844.1 344.679C1839.4 341.785 1840.69 331.125 1838.34 326.7C1830.62 312.129 1822.29 298.359 1811.15 286.193C1813.66 285.998 1815.45 285.337 1817.84 284.594C1827.57 281.38 1837.37 278.415 1847.25 275.703C1854.49 272.178 1893.4 265.438 1903.25 259.746C1905.1 258.682 1904.83 256.865 1905.2 254.453Z"/><defs><linearGradient id="gradient_0" gradientUnits="userSpaceOnUse" x1="1804.1748" y1="259.81314" x2="1856.8622" y2="218.50966"><stop offset="0" stop-color="#FF8200"/><stop offset="1" stop-color="#FF6108"/></linearGradient></defs><path fill="url(#gradient_0)" d="M1834.94 187.945C1837.48 189.445 1839.85 191.092 1842.75 191.59L1843.44 192.075C1857.94 201.309 1867.57 209.619 1879.95 221.75L1891.58 235.379C1896.19 241.666 1900.9 247.953 1905.2 254.453C1904.83 256.865 1905.1 258.682 1903.25 259.746C1893.4 265.438 1854.49 272.178 1847.25 275.703C1837.37 278.415 1827.57 281.38 1817.84 284.594C1815.45 285.337 1813.66 285.998 1811.15 286.193C1794.4 268.906 1784.67 260.799 1762.09 251.875C1760.04 250.334 1758.69 250.311 1756.16 249.919C1757.43 245.21 1761.27 242.638 1764.94 239.753C1779.3 231.239 1802.36 214.18 1816.77 204.217C1823.63 198.106 1834.65 196.596 1834.94 187.945Z"/><path fill="#FE5C07" d="M1816.77 204.217C1818.79 214.826 1817.55 283.999 1817.84 284.594C1815.45 285.337 1813.66 285.998 1811.15 286.193C1794.4 268.906 1784.67 260.799 1762.09 251.875C1760.04 250.334 1758.69 250.311 1756.16 249.919C1757.43 245.21 1761.27 242.638 1764.94 239.753C1779.3 231.239 1802.36 214.18 1816.77 204.217Z"/><path fill="#FF8401" d="M1762.09 251.875C1764.77 247.647 1787.82 239.276 1793.88 236.441C1797.8 244.839 1813.45 277.496 1812.39 284.41L1811.15 286.193C1794.4 268.906 1784.67 260.799 1762.09 251.875Z"/><path fill="#FE5C07" d="M1879.95 221.75L1891.58 235.379C1896.19 241.666 1900.9 247.953 1905.2 254.453C1904.83 256.865 1905.1 258.682 1903.25 259.746C1893.4 265.438 1854.49 272.178 1847.25 275.703C1848.18 267.725 1847.29 246.38 1846.96 237.984L1847.97 238.087C1847.71 222.33 1870 233.513 1878.72 227.12C1879.83 226.304 1879.78 223.271 1879.95 221.75Z"/><path fill="#F62B1D" d="M1879.95 221.75L1891.58 235.379C1880.34 235.856 1857.42 238.898 1847.97 238.087C1847.71 222.33 1870 233.513 1878.72 227.12C1879.83 226.304 1879.78 223.271 1879.95 221.75Z"/><path fill="#FC3624" d="M1843.44 192.075C1857.94 201.309 1867.57 209.619 1879.95 221.75C1879.78 223.271 1879.83 226.304 1878.72 227.12C1870 233.513 1847.71 222.33 1847.97 238.087L1846.96 237.984C1846.79 223.838 1844.09 207.031 1843.44 192.075Z"/><path fill="#FEAD01" d="M1722.84 164.657C1723.95 161.385 1723.2 162.343 1725.67 160.283C1735.43 158.052 1752.79 161.314 1763.04 163.053C1773.14 164.31 1786.72 167.319 1796.1 171.228C1802.32 172.802 1805.12 174.304 1810.86 176.398C1819.03 180.138 1827.01 183.711 1834.94 187.945C1834.65 196.596 1823.63 198.106 1816.77 204.217C1802.36 214.18 1779.3 231.239 1764.94 239.753C1761.27 242.638 1757.43 245.21 1756.16 249.919C1750.69 247.039 1738.55 244.969 1736.67 241.248C1731.15 230.304 1730.55 204.161 1730.78 193.059C1730.53 188.156 1731.01 170.41 1727.53 167.932C1726.75 168.593 1725.92 169.413 1725.01 169.811C1723.5 168.536 1723.3 166.597 1722.84 164.657Z"/><path fill="#FF8401" d="M1810.86 176.398C1819.03 180.138 1827.01 183.711 1834.94 187.945C1834.65 196.596 1823.63 198.106 1816.77 204.217C1802.36 214.18 1779.3 231.239 1764.94 239.753C1767.09 237.701 1768.04 236.66 1769.86 234.319C1769.86 230.098 1765.45 222.267 1764.93 217.614C1764.56 214.291 1766.37 212.773 1764.88 209.477C1765.23 208.81 1770.69 205.499 1772.14 204.412L1771.93 202.532C1781.18 197.892 1799.84 185.49 1809.33 179.658C1809.93 178.382 1810.44 177.295 1810.86 176.398Z"/><path fill="#FEAD01" d="M1763.04 163.053C1773.14 164.31 1786.72 167.319 1796.1 171.228C1802.32 172.802 1805.12 174.304 1810.86 176.398C1810.44 177.295 1809.93 178.382 1809.33 179.658C1799.84 185.49 1781.18 197.892 1771.93 202.532C1765.94 198.564 1754.13 189.251 1749.18 184.27C1746.15 176.318 1742.79 169.864 1738.26 162.688C1745.97 163.061 1755.5 163.821 1763.04 163.053Z"/><path fill="#F9A017" d="M1763.04 163.053C1773.14 164.31 1786.72 167.319 1796.1 171.228C1788.22 171.286 1750.75 176.446 1749.18 184.27C1746.15 176.318 1742.79 169.864 1738.26 162.688C1745.97 163.061 1755.5 163.821 1763.04 163.053Z"/><path fill="#FF8401" d="M1722.84 164.657C1723.95 161.385 1723.2 162.343 1725.67 160.283C1735.43 158.052 1752.79 161.314 1763.04 163.053C1755.5 163.821 1745.97 163.061 1738.26 162.688C1742.79 169.864 1746.15 176.318 1749.18 184.27C1754.13 189.251 1765.94 198.564 1771.93 202.532L1772.14 204.412C1770.69 205.499 1765.23 208.81 1764.88 209.477C1760.17 212.031 1755.39 214.849 1750.73 217.519L1731.25 176.224C1731.32 181.84 1731.17 187.456 1730.78 193.059C1730.53 188.156 1731.01 170.41 1727.53 167.932C1726.75 168.593 1725.92 169.413 1725.01 169.811C1723.5 168.536 1723.3 166.597 1722.84 164.657Z"/><path fill="#529647" d="M1703.96 159.555C1708.64 159.427 1714.24 158.796 1718.28 160.877L1719.03 162.558C1716.08 169.289 1697.38 175.855 1695.3 181.709C1695.11 179.091 1694.54 167.796 1693.41 166.438C1684.43 166.679 1680.43 168.018 1671.74 169.701L1671.47 171.374C1659.15 179.511 1645.49 190.685 1634.01 200.048C1623.05 196.505 1616.23 188.852 1604.53 189.242C1606.05 187.673 1608.18 186.96 1609.99 185.859C1636.43 169.791 1666.97 163.26 1697.45 160.601C1699.89 160.388 1701.5 160.15 1703.96 159.555Z"/><path fill="#60AA58" d="M1671.47 171.374L1671.74 169.701C1680.43 168.018 1684.43 166.679 1693.41 166.438C1694.54 167.796 1695.11 179.091 1695.3 181.709C1698.37 196.427 1698.63 207.265 1702.26 222.301C1690.89 215.234 1679.06 209.023 1667.63 201.991C1668.35 190.892 1669.74 182.398 1671.47 171.374Z"/><path fill="#00363E" d="M1391.7 222.195C1402.97 220.731 1455.2 219.811 1463.23 224.551C1466.64 232.251 1466.15 516.199 1463.33 534.968C1462.85 538.171 1461.19 539.789 1458.71 541.677L1402.14 542.188C1397.29 542.197 1389.82 542.804 1386.21 539.211C1381.17 521.418 1384.47 440.193 1384.52 416.201L1384.95 267.466C1385.02 257.208 1384.16 246.929 1384.38 236.696C1384.45 233.369 1384.45 228.653 1385.9 225.602C1387.08 223.094 1389.25 223 1391.7 222.195Z"/><path fill="#F9A017" d="M3356.08 359.445C3403.44 353.434 3446.76 386.829 3453 434.161C3459.23 481.494 3426.04 524.967 3378.74 531.429C3331.12 537.935 3287.29 504.474 3281.01 456.821C3274.73 409.168 3308.4 365.496 3356.08 359.445ZM3348.83 491.707C3358.63 501.491 3383.34 495.54 3392.65 485.484C3427.96 449.169 3393.04 363.281 3340.38 407.584C3320.44 424.367 3326.6 485.287 3348.83 491.707Z"/><path fill="#FBFFFF" fill-opacity="0.011764706" d="M3348.83 491.707C3353.05 490.009 3386.98 485.346 3392.65 485.484C3383.34 495.54 3358.63 501.491 3348.83 491.707Z"/><path fill="#A51A81" d="M1933.92 327.7C1939.12 343.901 1938.93 357.597 1936.82 374.385C1936.2 379.352 1934.08 384.04 1934.33 388.678C1931.46 411.358 1917.72 439.996 1904.5 458.481C1902.06 461.176 1898.17 466.311 1896.64 469.574C1894.19 474.349 1886.51 480.358 1885.48 483.211C1875.08 497.408 1854.71 512.269 1839.54 521.182C1835.25 523.7 1825.2 528.592 1822.1 530.733C1807.71 536.997 1792.06 542.252 1776.42 543.935C1774.03 544.192 1772.04 544.392 1769.68 544.915L1769.23 545.156C1758.19 547.749 1737.51 547.673 1725.51 547.898C1724.93 546.58 1724.32 543.503 1723.98 541.979C1724.48 537.097 1724.87 531.741 1724.77 526.823C1724.6 518.326 1720.9 507.651 1723.47 499.603C1730.57 498.982 1729.94 472.181 1730.03 466.898C1735 466.992 1746.54 463.581 1752.81 462.574C1769.5 458.182 1786.38 447.658 1799.17 436.255C1803.41 432.468 1805.99 428.974 1810.52 425.494C1822.66 409.814 1826.91 399.852 1835.43 381.951C1835.44 381.595 1838.31 375.067 1838.77 373.632C1839.66 370.55 1842.36 367.236 1844.28 364.547C1854.83 362.636 1865.09 361.609 1874.4 356.371L1877 357.405C1892.28 354.234 1917.23 360.185 1932.06 350.667C1934.14 349.332 1933.66 332.153 1933.92 327.7Z"/><path fill="#ED0F73" d="M1933.92 327.7C1939.12 343.901 1938.93 357.597 1936.82 374.385C1936.2 379.352 1934.08 384.04 1934.33 388.678C1931.46 411.358 1917.72 439.996 1904.5 458.481C1902.06 461.176 1898.17 466.311 1896.64 469.574C1895.91 469.618 1895.18 469.65 1894.45 469.67C1888.79 469.797 1888.35 468.717 1884.12 464.685C1874.1 447.291 1864.48 429.483 1854.01 412.38L1854.22 411.631C1851.28 410.398 1843.7 403.106 1841.59 400.368C1835 391.863 1834.69 392.003 1835.43 381.951C1835.44 381.595 1838.31 375.067 1838.77 373.632C1839.66 370.55 1842.36 367.236 1844.28 364.547C1854.83 362.636 1865.09 361.609 1874.4 356.371L1877 357.405C1892.28 354.234 1917.23 360.185 1932.06 350.667C1934.14 349.332 1933.66 332.153 1933.92 327.7Z"/><path fill="#C70357" d="M1933.92 327.7C1939.12 343.901 1938.93 357.597 1936.82 374.385C1936.2 379.352 1934.08 384.04 1934.33 388.678C1932.57 392.74 1931.6 393.545 1928.46 396.457C1928.62 393.379 1929.41 389.138 1928.14 386.892C1921.94 384.263 1906.22 380.493 1899.33 379.284L1900.41 381.567C1897.65 386.052 1860.95 408.144 1854.22 411.631C1851.28 410.398 1843.7 403.106 1841.59 400.368C1835 391.863 1834.69 392.003 1835.43 381.951C1835.44 381.595 1838.31 375.067 1838.77 373.632C1839.66 370.55 1842.36 367.236 1844.28 364.547C1854.83 362.636 1865.09 361.609 1874.4 356.371L1877 357.405C1892.28 354.234 1917.23 360.185 1932.06 350.667C1934.14 349.332 1933.66 332.153 1933.92 327.7Z"/><path fill="#FC2D8A" d="M1838.77 373.632C1842.4 370.377 1844.73 367.899 1849.77 368.783C1863.09 371.115 1886.98 375.271 1899.33 379.284L1900.41 381.567C1897.65 386.052 1860.95 408.144 1854.22 411.631C1851.28 410.398 1843.7 403.106 1841.59 400.368C1835 391.863 1834.69 392.003 1835.43 381.951C1835.44 381.595 1838.31 375.067 1838.77 373.632Z"/><path fill="#A51A81" d="M1928.46 396.457C1931.6 393.545 1932.57 392.74 1934.33 388.678C1931.46 411.358 1917.72 439.996 1904.5 458.481C1905.23 444.747 1894.04 431.596 1886.14 419.656C1899.58 412.153 1913.53 406.306 1927.25 399.498C1927.25 399.498 1928.33 396.767 1928.46 396.457Z"/><path fill="#C70357" d="M1835.43 381.951C1834.69 392.003 1835 391.863 1841.59 400.368C1843.7 403.106 1851.28 410.398 1854.22 411.631L1854.01 412.38C1864.48 429.483 1874.1 447.291 1884.12 464.685C1868.29 458.985 1827.42 435.147 1812.88 434.194L1811.58 433.56C1809.59 430.514 1810.34 429.593 1810.52 425.494C1822.66 409.814 1826.91 399.852 1835.43 381.951Z"/><path fill="#ED0F73" d="M1835.43 381.951C1834.69 392.003 1835 391.863 1841.59 400.368C1843.7 403.106 1851.28 410.398 1854.22 411.631L1854.01 412.38C1841.55 417.89 1825.65 433.497 1812.88 434.194L1811.58 433.56C1809.59 430.514 1810.34 429.593 1810.52 425.494C1822.66 409.814 1826.91 399.852 1835.43 381.951Z"/><path fill="#7A1674" d="M1823.13 465.744C1838.96 471.067 1853.27 478.564 1868.96 483.898C1876 486.289 1878.96 486.63 1885.48 483.211C1875.08 497.408 1854.71 512.269 1839.54 521.182C1835.25 523.7 1825.2 528.592 1822.1 530.733L1819.88 529.306C1822.55 525.849 1829.82 522.676 1829.42 517.95C1827.92 500.432 1824.17 483.363 1823.13 465.744Z"/><path fill="#7A1674" d="M1723.47 499.603C1730.57 498.982 1729.94 472.181 1730.03 466.898C1733.02 478.211 1732.87 482.25 1731.98 494.155L1742.98 498.401C1751.73 504.953 1766.17 509.721 1775.1 515.969C1764.69 524.073 1751.9 533.649 1745.04 544.979C1750.91 544.664 1763.94 543.872 1769.23 545.156C1758.19 547.749 1737.51 547.673 1725.51 547.898C1724.93 546.58 1724.32 543.503 1723.98 541.979C1724.48 537.097 1724.87 531.741 1724.77 526.823C1724.6 518.326 1720.9 507.651 1723.47 499.603Z"/><path fill="#7A1674" d="M1769.68 544.915C1769.82 544.326 1769.87 544.041 1770.27 543.551C1776.26 536.244 1777.47 527.389 1780.28 519.582C1782.4 518.953 1786.07 520.626 1788.4 521.424C1794.67 524.83 1798.17 526.698 1803 532.091C1810.84 529.467 1811.65 529.55 1819.88 529.306L1822.1 530.733C1807.71 536.997 1792.06 542.252 1776.42 543.935C1774.03 544.192 1772.04 544.392 1769.68 544.915Z"/><path fill="#7A1674" d="M1793.45 461.689L1794.34 461.941C1798.47 466.865 1798.92 494.936 1798.9 502.561C1791.71 499.976 1785.13 495.844 1778.53 492.06C1772.69 488.628 1767.07 485.036 1761.5 481.197C1771.92 474.388 1783.44 469.08 1793.45 461.689Z"/><path fill="#056EA1" d="M1510.08 331.749C1510.38 336.682 1510.36 339.711 1510.09 344.648C1510.57 349.844 1510.51 351.324 1509.83 356.503C1516.75 357.634 1543.16 356.837 1550.45 356.079C1553.83 359.075 1564.34 361.134 1569.24 363.512C1578.46 367.995 1608.05 383.167 1614.52 389.01C1624.51 410.514 1635.1 426.478 1656.21 438.817C1664.32 443.675 1695.35 460.678 1703.81 463.422C1707.77 464.673 1712.21 466.568 1716.13 468.107C1716.39 469.311 1716.92 471.381 1716.92 472.532C1718.21 478.656 1723.02 495.641 1723.47 499.603C1720.9 507.651 1724.6 518.326 1724.77 526.823C1724.87 531.741 1724.48 537.097 1723.98 541.979C1724.32 543.503 1724.93 546.58 1725.51 547.898C1714.25 547.842 1697.63 547.887 1686.64 546.017C1676.95 546.388 1648.16 537.284 1638.62 533.801C1636.34 532.166 1625.31 527.476 1622.08 526.066L1619.01 523.875C1604.27 517.313 1581.57 499.284 1569.48 488.456C1562.28 481.065 1546.84 465.092 1542.43 456.291C1540.21 453.977 1534.62 445.092 1532.69 441.882C1512.08 407.591 1500.67 371.492 1510.08 331.749Z"/><path fill="#054F89" d="M1510.08 331.749C1510.38 336.682 1510.36 339.711 1510.09 344.648C1510.57 349.844 1510.51 351.324 1509.83 356.503C1515.45 364.274 1614.43 420.816 1629.91 429.292L1586.14 452.819C1579.81 456.232 1568.72 462.85 1562.64 464.939C1571.45 444.273 1577.41 427.824 1584.51 406.51C1577.47 402.554 1568.27 397.031 1561.2 393.55C1554.05 410.107 1541.36 438.731 1542.43 456.291C1540.21 453.977 1534.62 445.092 1532.69 441.882C1512.08 407.591 1500.67 371.492 1510.08 331.749Z"/><path fill="#056EA1" d="M1716.92 472.532C1718.21 478.656 1723.02 495.641 1723.47 499.603C1720.9 507.651 1724.6 518.326 1724.77 526.823C1724.87 531.741 1724.48 537.097 1723.98 541.979C1724.32 543.503 1724.93 546.58 1725.51 547.898C1714.25 547.842 1697.63 547.887 1686.64 546.017C1676.95 546.388 1648.16 537.284 1638.62 533.801C1642.33 533.65 1646.06 533.57 1649.78 533.561C1657.32 528.54 1672.03 518.265 1679.73 514.448L1693.85 506.306C1695.4 504.667 1714.14 493.171 1717.5 491.063C1716.65 482.612 1716.27 481.356 1716.92 472.532Z"/><path fill="#056EA1" d="M1716.92 472.532C1718.21 478.656 1723.02 495.641 1723.47 499.603C1720.9 507.651 1724.6 518.326 1724.77 526.823C1724.87 531.741 1724.48 537.097 1723.98 541.979C1715.54 534.127 1696.61 517.122 1693.85 506.306C1695.4 504.667 1714.14 493.171 1717.5 491.063C1716.65 482.612 1716.27 481.356 1716.92 472.532Z"/><path fill="#104A94" d="M1693.85 506.306C1696.61 517.122 1715.54 534.127 1723.98 541.979C1724.32 543.503 1724.93 546.58 1725.51 547.898C1714.25 547.842 1697.63 547.887 1686.64 546.017C1694.91 545.097 1702.44 545.718 1710.72 546.148C1704.39 538.269 1687.6 522.206 1679.73 514.448L1693.85 506.306Z"/><path fill="#0E9CB6" d="M1716.13 468.107C1716.39 469.311 1716.92 471.381 1716.92 472.532C1716.27 481.356 1716.65 482.612 1717.5 491.063C1714.14 493.171 1695.4 504.667 1693.85 506.306L1679.73 514.448C1672.03 518.265 1657.32 528.54 1649.78 533.561C1646.06 533.57 1642.33 533.65 1638.62 533.801C1636.34 532.166 1625.31 527.476 1622.08 526.066C1622.55 516.486 1638.35 511.941 1646.17 505.705C1658.64 498.529 1670.97 491.1 1683.13 483.422C1696.02 477.221 1702.04 467.98 1716.13 468.107Z"/><path fill="#054F89" d="M1569.48 488.456C1571.05 488.624 1574.85 488.908 1576.18 488.279C1590.6 481.486 1606.16 471.618 1619.97 463.816C1620.36 481.633 1614.97 509.426 1619.01 523.875C1604.27 517.313 1581.57 499.284 1569.48 488.456Z"/><path fill="#054F89" d="M1648.5 460.581C1652.87 463.755 1668.31 473.246 1671.08 476.287C1671.81 476.673 1674.92 478.227 1675.47 478.237C1682.87 478.377 1701.58 470.14 1703.81 463.422C1707.77 464.673 1712.21 466.568 1716.13 468.107C1702.04 467.98 1696.02 477.221 1683.13 483.422C1670.97 491.1 1658.64 498.529 1646.17 505.705C1647.75 491.85 1648 474.683 1648.5 460.581Z"/><path fill="#FEC900" d="M1890.65 8.19629C1894.76 7.24455 1904.99 3.93128 1908.09 4.17991L1908.93 5.57431C1905.56 17.2473 1895.01 49.4273 1894.03 60.6097C1892.18 81.0589 1869.02 120.614 1845.97 123.374C1819.05 127.147 1797.37 127.166 1770.2 127.796C1761.96 127.987 1753.72 131.448 1745.52 131.174C1738.31 132.991 1730.95 134.96 1723.57 135.882C1719.5 129.135 1727.47 91.5682 1729.49 81.9133C1729.66 79.8067 1729.89 77.705 1730.17 75.6102C1732.73 56.8271 1739.72 35.9223 1755.26 24.0566C1770.98 12.5344 1790.38 14.8979 1809.72 14.646C1813.69 14.6514 1824.96 14.425 1828.33 14.9716C1844.11 14.8939 1876.43 14.1742 1890.65 8.19629Z"/><path fill="#104A94" d="M1894.03 60.6097C1892.18 81.0589 1869.02 120.614 1845.97 123.374C1819.05 127.147 1797.37 127.166 1770.2 127.796C1761.96 127.987 1753.72 131.448 1745.52 131.174C1749.19 130.062 1754.22 128.963 1758.04 128.009C1765.4 126.893 1773.58 126.043 1781.02 125.128L1783.24 124.8C1784.07 122.267 1784.84 119.717 1785.56 117.152C1788.08 110.706 1787.94 111.115 1793.57 106.911C1801.99 100.628 1810.49 94.4868 1818.99 88.3227C1821.14 85.9864 1842.33 70.7679 1845.52 68.8757L1847.5 68.8371C1855.96 67.8116 1866.27 66.3622 1874.67 65.9905C1881.73 64.4585 1889.54 65.6946 1894.03 60.6097Z"/><path fill="#118F8A" d="M1818.99 88.3227C1820.43 89.9272 1828.33 111.478 1836.34 112.025C1834.17 115.12 1831.99 118.199 1829.78 121.263L1830.15 122.601C1835.46 123.612 1839.25 122.175 1845.97 123.374C1819.05 127.147 1797.37 127.166 1770.2 127.796C1761.96 127.987 1753.72 131.448 1745.52 131.174C1749.19 130.062 1754.22 128.963 1758.04 128.009C1765.4 126.893 1773.58 126.043 1781.02 125.128L1783.24 124.8C1784.07 122.267 1784.84 119.717 1785.56 117.152C1788.08 110.706 1787.94 111.115 1793.57 106.911C1801.99 100.628 1810.49 94.4868 1818.99 88.3227Z"/><path fill="#37A581" d="M1845.52 68.8757L1847.5 68.8371L1847.79 69.4992C1848.22 73.7254 1838.36 107.817 1836.34 112.025C1828.33 111.478 1820.43 89.9272 1818.99 88.3227C1821.14 85.9864 1842.33 70.7679 1845.52 68.8757Z"/><path fill="#056EA1" d="M1836.34 112.025C1838.36 107.817 1848.22 73.7254 1847.79 69.4992C1851.15 72.0931 1862.32 84.989 1863.86 88.3644C1855.54 97.2291 1841.41 106.17 1836.34 112.025Z"/><path fill="#054F89" d="M1874.67 65.9905L1885.63 66.0778C1884.4 71.4517 1869.11 82.3599 1863.86 88.3644C1862.32 84.989 1851.15 72.0931 1847.79 69.4992L1847.5 68.8371C1855.96 67.8116 1866.27 66.3622 1874.67 65.9905Z"/><path fill="#FC3624" d="M1755.26 24.0566C1770.98 12.5344 1790.38 14.8979 1809.72 14.646L1810.07 16.2089C1806.72 32.2671 1800.44 48.6759 1795.88 64.6243C1795.22 68.9642 1795.99 67.8175 1793.27 70.5491C1786.98 69.5761 1753.28 72.8071 1747.07 74.8181C1736.68 76.9696 1735.37 74.1331 1729.49 81.9133C1729.66 79.8067 1729.89 77.705 1730.17 75.6102C1732.73 56.8271 1739.72 35.9223 1755.26 24.0566Z"/><path fill="#F62B1D" d="M1755.26 24.0566C1770.98 12.5344 1790.38 14.8979 1809.72 14.646L1810.07 16.2089C1806.72 32.2671 1800.44 48.6759 1795.88 64.6243C1793.25 57.7868 1795.71 53.171 1795.42 49.9875C1794.91 44.4162 1775.35 26.4373 1770.98 22.9719C1765.75 21.4319 1762.65 28.8639 1755.26 24.0566Z"/><path fill="#FEAD01" d="M1729.49 81.9133C1735.37 74.1331 1736.68 76.9696 1747.07 74.8181C1751.89 82.8703 1758.9 92.9764 1760.79 101.952C1772.39 93.2155 1779.74 87.4157 1790.5 77.5679L1791.58 77.8881L1792.59 81.2852C1790.81 89.4329 1786.02 109.744 1785.56 117.152C1784.84 119.717 1784.07 122.267 1783.24 124.8L1781.02 125.128C1773.58 126.043 1765.4 126.893 1758.04 128.009C1754.22 128.963 1749.19 130.062 1745.52 131.174C1738.31 132.991 1730.95 134.96 1723.57 135.882C1719.5 129.135 1727.47 91.5682 1729.49 81.9133Z"/><path fill="#FF8401" d="M1762.02 101.257C1765.63 105.658 1778.38 122.975 1781.02 125.128C1773.58 126.043 1765.4 126.893 1758.04 128.009C1754.22 128.963 1749.19 130.062 1745.52 131.174C1738.31 132.991 1730.95 134.96 1723.57 135.882C1727.19 129.679 1735.75 123.176 1741.43 118.294C1748.35 112.691 1755.22 107.012 1762.02 101.257Z"/><path fill="#FE5C07" d="M1741.43 118.294C1741.25 124.848 1738.98 123.78 1739.93 127.416C1741.25 128.112 1753.52 127.544 1758.04 128.009C1754.22 128.963 1749.19 130.062 1745.52 131.174C1738.31 132.991 1730.95 134.96 1723.57 135.882C1727.19 129.679 1735.75 123.176 1741.43 118.294Z"/><path fill="#FC3624" d="M1890.65 8.19629C1894.76 7.24455 1904.99 3.93128 1908.09 4.17991L1908.93 5.57431C1905.56 17.2473 1895.01 49.4273 1894.03 60.6097C1889.54 65.6946 1881.73 64.4585 1874.67 65.9905C1866.27 66.3622 1855.96 67.8116 1847.5 68.8371C1847.84 67.4371 1848.89 65.0821 1849.47 63.6651L1851.75 53.2109C1855.61 41.6274 1857.74 27.8151 1860.67 15.5606C1852.93 16.4089 1835.21 17.8802 1828.33 14.9716C1844.11 14.8939 1876.43 14.1742 1890.65 8.19629Z"/><path fill="#FE5C07" d="M1828.33 14.9716C1844.11 14.8939 1876.43 14.1742 1890.65 8.19629C1894.9 9.9218 1899.35 9.57469 1903.94 9.55881C1888.28 24.1493 1874.94 37.7675 1860.56 53.6813C1856.89 57.7405 1851.44 60.4615 1849.47 63.6651L1851.75 53.2109C1855.61 41.6274 1857.74 27.8151 1860.67 15.5606C1852.93 16.4089 1835.21 17.8802 1828.33 14.9716Z"/><path fill="#60AA58" d="M1802.64 69.3797C1805.97 69.4168 1809.28 70.7328 1814.5 70.4987C1824.97 70.0288 1835.04 69.1157 1845.52 68.8757C1842.33 70.7679 1821.14 85.9864 1818.99 88.3227C1810.49 94.4868 1801.99 100.628 1793.57 106.911C1787.94 111.115 1788.08 110.706 1785.56 117.152C1786.02 109.744 1790.81 89.4329 1792.59 81.2852L1795.44 72.1644L1802.64 69.3797Z"/><path fill="#FEAD01" d="M1809.72 14.646C1813.69 14.6514 1824.96 14.425 1828.33 14.9716C1835.21 17.8802 1852.93 16.4089 1860.67 15.5606C1857.74 27.8151 1855.61 41.6274 1851.75 53.2109C1851.6 49.1452 1853.61 39.5026 1854.4 35.0819C1850.37 37.6934 1847.64 39.4531 1843.32 41.5498C1842.96 41.505 1842.63 41.4372 1842.31 41.493C1828.07 44.0023 1821.75 19.4593 1810.07 16.2089L1809.72 14.646Z"/><path fill="#C5BC04" d="M1843.32 41.5498C1847.64 39.4531 1850.37 37.6934 1854.4 35.0819C1853.61 39.5026 1851.6 49.1452 1851.75 53.2109L1849.47 63.6651C1848.89 65.0821 1847.84 67.4371 1847.5 68.8371L1845.52 68.8757C1835.04 69.1157 1824.97 70.0288 1814.5 70.4987C1809.28 70.7328 1805.97 69.4168 1802.64 69.3797C1812.06 60.7341 1831.94 48.8328 1843.32 41.5498Z"/><path fill="#37A581" d="M1604.53 189.242C1616.23 188.852 1623.05 196.505 1634.01 200.048C1643.1 204.944 1708.47 239.188 1710.42 243.142C1708.12 246.617 1706 245.877 1702.75 248.285C1698.8 249.678 1696.74 250.602 1692.5 250.777C1687.21 250.458 1684.22 250.427 1678.94 250.772C1670.38 251.704 1665.28 247.968 1653.66 249.682C1645.03 258.223 1636.81 270.73 1632.89 282.247C1632.73 284.334 1632.4 287.346 1632.37 289.352C1619.94 305.399 1620.09 309.994 1612.6 326.598C1600.95 362.667 1610.1 350.447 1575.65 354.25L1569.26 356.329L1568.94 357.24L1569.13 357.542L1566.9 357.734C1561.84 353.94 1556.65 355.336 1550.45 356.079C1543.16 356.837 1516.75 357.634 1509.83 356.503C1510.51 351.324 1510.57 349.844 1510.09 344.648C1510.36 339.711 1510.38 336.682 1510.08 331.749C1509.49 324.975 1514.24 309.144 1517.11 302.683C1520 288.326 1530.84 268.626 1538.06 255.913C1544.94 244.671 1552.23 235.444 1560.84 225.526C1567.87 217.236 1580.31 206.738 1588.93 200.203C1594.19 196.188 1598.75 192.564 1604.53 189.242Z"/><path fill="#118F8A" d="M1560.84 225.526C1567.87 217.236 1580.31 206.738 1588.93 200.203C1587.53 208.09 1587.26 209.694 1589.72 217.423C1591.01 229.838 1594.43 246.407 1596.47 259.088C1598.16 269.531 1601.12 289.822 1604.08 299.668C1591.94 295.372 1574.88 289.662 1562.24 286.414C1552.1 291.21 1533.89 299.176 1524.82 304.664L1521.37 306.253C1520 304.866 1518.64 303.87 1517.11 302.683C1520 288.326 1530.84 268.626 1538.06 255.913C1544.94 244.671 1552.23 235.444 1560.84 225.526Z"/><path fill="#37A581" d="M1560.84 225.526C1566 225.352 1565.47 224.607 1569.42 226.948C1570.9 229.415 1573.76 235.509 1574.94 237.106C1578.33 249.809 1582.93 260.695 1588.17 272.74C1581.25 270.48 1540.2 260.594 1538.33 256.589C1538.21 256.334 1538.15 256.167 1538.06 255.913C1544.94 244.671 1552.23 235.444 1560.84 225.526Z"/><path fill="#1D8664" d="M1560.84 225.526C1567.87 217.236 1580.31 206.738 1588.93 200.203C1587.53 208.09 1587.26 209.694 1589.72 217.423L1587.8 217.012L1587.71 217.282C1585.69 223.253 1579.75 232.811 1574.94 237.106C1573.76 235.509 1570.9 229.415 1569.42 226.948C1565.47 224.607 1566 225.352 1560.84 225.526Z"/><path fill="#118F8A" d="M1517.11 302.683C1518.64 303.87 1520 304.866 1521.37 306.253L1524.82 304.664C1538.64 309.251 1561.11 316.201 1573.4 322.831L1521.9 351.292C1518.5 353.152 1510.93 355.744 1509.83 356.503C1510.51 351.324 1510.57 349.844 1510.09 344.648C1510.36 339.711 1510.38 336.682 1510.08 331.749C1509.49 324.975 1514.24 309.144 1517.11 302.683Z"/><path fill="#37A581" d="M1517.11 302.683C1518.64 303.87 1520 304.866 1521.37 306.253C1552.81 334.353 1541.43 327.115 1510.09 344.648C1510.36 339.711 1510.38 336.682 1510.08 331.749C1509.49 324.975 1514.24 309.144 1517.11 302.683Z"/><path fill="#118F8A" d="M1622.84 217.65C1629.46 220.326 1672.07 245.998 1678.94 250.772C1670.38 251.704 1665.28 247.968 1653.66 249.682C1645.03 258.223 1636.81 270.73 1632.89 282.247C1629.35 275.302 1624.12 228.476 1622.84 217.65Z"/><path fill="#118F8A" d="M1575.65 354.25C1572.48 353.955 1570.95 353.798 1567.88 352.997C1569.52 349.153 1578.99 350.856 1582.47 349.29C1590.78 345.548 1598.65 339.584 1605.51 333.607C1608.53 330.975 1608.29 329.019 1612.6 326.598C1600.95 362.667 1610.1 350.447 1575.65 354.25Z"/><path fill="#F9A017" d="M3571.39 364.298C3572.57 364.286 3573.75 364.299 3574.93 364.336C3578.91 364.475 3582.35 365.362 3585.1 368.432C3592.21 376.347 3589.77 391.391 3589.35 401.121C3572.87 405.221 3556.32 402.824 3541.32 413.003C3538.36 415.009 3534.15 418.218 3532.72 421.566C3524.61 440.556 3536.09 516.308 3527.58 525.53C3519.99 527.348 3492.95 528.131 3486.18 525.499C3483.17 515.914 3483.48 380.766 3486.24 368.855C3486.98 368.295 3487.72 367.816 3488.57 367.45C3494.5 364.903 3513.22 365.572 3519.14 368.023C3527.36 371.426 3528.51 382.252 3531.62 389.704C3532.29 388.562 3533.01 387.45 3533.78 386.372C3544.22 371.74 3554.28 367.072 3571.39 364.298Z"/><path fill="#00363E" d="M1424.83 93.4441C1437.89 94.2203 1447.67 95.4175 1458.09 104.439C1476.71 120.564 1474.59 155.907 1451.69 167.193C1443.63 171.166 1437.71 171.229 1428.98 171.693C1416.27 171.506 1404.12 170.792 1393.96 161.946C1378.99 148.909 1378.35 121.928 1391.65 107.471C1401.86 96.3814 1410.65 94.3542 1424.83 93.4441Z"/><path fill="#A51A81" d="M1683.27 328.625C1697.1 331.637 1704.97 325.638 1704.61 345.214C1704.41 349.768 1704.65 350.611 1706.22 354.816C1708.8 356.358 1713.08 362.106 1713.94 364.796C1716.5 369.897 1717.46 372.034 1717.3 378.038C1708.88 384.371 1708.4 394.43 1701.57 400.234C1697.04 391.438 1695.46 390.376 1687.8 383.814L1683.36 381.202C1675.36 377.94 1666.28 374.955 1658.05 372.261C1649.82 370.248 1614.26 360.174 1614.54 350.719C1617.67 347.345 1625.25 346.841 1629.62 346.634C1633.67 346.638 1637.51 345.712 1640.99 343.632C1646.48 343.344 1676.21 331.622 1683.27 328.625Z"/><path fill="#FEAD01" d="M1683.27 328.625C1697.1 331.637 1704.97 325.638 1704.61 345.214C1704.41 349.768 1704.65 350.611 1706.22 354.816C1705.85 356.462 1705.67 356.766 1704.92 358.292C1702.65 357.534 1693.79 354.381 1691.81 354.349C1666.01 353.928 1638.47 356.298 1612.83 354.023C1618.77 350.919 1623.44 349.072 1629.62 346.634C1633.67 346.638 1637.51 345.712 1640.99 343.632C1646.48 343.344 1676.21 331.622 1683.27 328.625Z"/><path fill="#7A1674" d="M1687.8 383.814C1690.58 383.408 1707.44 368.416 1709.59 365.716L1709.31 363.807C1711.26 363.782 1712.11 364.192 1713.94 364.796C1716.5 369.897 1717.46 372.034 1717.3 378.038C1708.88 384.371 1708.4 394.43 1701.57 400.234C1697.04 391.438 1695.46 390.376 1687.8 383.814Z"/><path fill="#ED0F73" d="M1749.69 308.985C1753.51 314.847 1756.53 319.915 1761.85 324.486C1772.91 333.977 1827.93 339.727 1829.76 352.455C1829.21 353.6 1829.2 354.029 1828.25 354.708C1808.17 370.136 1782.96 370.467 1769.08 379.755C1764.34 380.011 1759.42 384.386 1756.22 387.836C1755.76 378.459 1743.24 367.603 1735.44 370.688L1732 370.772C1737.42 363.564 1745.38 361.927 1749.54 355.034C1749.3 350.779 1741.49 348.471 1738.82 343.087L1738.9 342.401C1742.41 334.705 1744.03 331.62 1752.3 328.488C1754.86 323.667 1750.93 315.62 1749.69 308.985Z"/><path fill="#60AA58" d="M1738.82 343.087C1772.05 361.131 1792.56 352.746 1828.25 354.708C1808.17 370.136 1782.96 370.467 1769.08 379.755C1764.34 380.011 1759.42 384.386 1756.22 387.836C1755.76 378.459 1743.24 367.603 1735.44 370.688L1732 370.772C1737.42 363.564 1745.38 361.927 1749.54 355.034C1749.3 350.779 1741.49 348.471 1738.82 343.087Z"/><path fill="#FEAD01" d="M1707.09 295.953C1708.58 285.027 1710.35 255.211 1725.69 257.215C1735.05 264.136 1731.94 266.186 1736.39 275.156C1736.85 275.931 1749.69 309.551 1749.69 308.985C1750.93 315.62 1754.86 323.667 1752.3 328.488C1744.03 331.62 1742.41 334.705 1738.9 342.401C1736.19 340.239 1730.78 333.74 1728.89 330.748C1725.29 329.9 1724.51 329.637 1721.02 330.622C1714.34 334.969 1707.97 337.997 1704.61 345.214C1704.97 325.638 1697.1 331.637 1683.27 328.625C1692.26 325.358 1692.1 326.073 1700.81 320.846L1703.92 310.492C1705 307.657 1706.43 299.331 1707.09 295.953Z"/><path fill="#F62B1D" d="M1725.69 257.215C1735.05 264.136 1731.94 266.186 1736.39 275.156C1736.85 275.931 1749.69 309.551 1749.69 308.985C1750.93 315.62 1754.86 323.667 1752.3 328.488C1744.03 331.62 1742.41 334.705 1738.9 342.401C1736.19 340.239 1730.78 333.74 1728.89 330.748C1724.57 318.386 1726.4 272.702 1725.69 257.215Z"/><path fill="#FF8401" d="M1707.09 295.953C1707.56 303.142 1707.48 307.711 1707.18 314.798C1709.29 317.867 1714.46 327.855 1715.51 328.648C1719.19 329.135 1718.43 328.521 1721.02 330.622C1714.34 334.969 1707.97 337.997 1704.61 345.214C1704.97 325.638 1697.1 331.637 1683.27 328.625C1692.26 325.358 1692.1 326.073 1700.81 320.846L1703.92 310.492C1705 307.657 1706.43 299.331 1707.09 295.953Z"/><path fill="#FEC3FF" fill-opacity="0.06666667" d="M1721.23 221.373C1723.7 217.719 1722.7 201.913 1725.47 200.196L1724.49 202.784L1726.12 203.968C1726.86 212.851 1729.33 224.53 1730.52 233.565C1732.68 250.002 1751.28 250.007 1765.05 256.375C1754.74 257.525 1740.56 250.96 1730.73 247.848C1733.59 248.753 1716.32 247.733 1719.19 247.443L1717.89 249.289C1724.48 253.766 1732.74 248.399 1736.07 263.063C1736.85 266.496 1736.54 271.514 1736.39 275.156C1731.94 266.186 1735.05 264.136 1725.69 257.215C1710.35 255.211 1708.58 285.027 1707.09 295.953C1706.43 299.331 1705 307.657 1703.92 310.492C1703.23 300.598 1704.58 286.981 1703.89 276.867C1703.08 276.127 1702.39 275.491 1701.81 274.959C1699.68 274.451 1697.25 273.945 1695.22 273.201C1700.12 269.466 1702.4 275.964 1703.62 267.166C1702.15 266.486 1701.73 266.691 1700.05 266.903C1695.98 262.358 1703.77 250.287 1679.36 259.032C1647.75 270.354 1622.53 297.037 1614.64 329.845C1613.33 335.257 1609.15 342.405 1611.46 348.171C1613.66 348.474 1615.7 345.249 1618.97 345.71C1623.79 346.387 1637.16 343.221 1640.99 343.632C1637.51 345.712 1633.67 346.638 1629.62 346.634C1625.25 346.841 1617.67 347.345 1614.54 350.719C1614.26 360.174 1649.82 370.248 1658.05 372.261C1654.78 372.478 1649.89 372.361 1646.5 372.373C1640.33 370.222 1620.73 362.23 1615.49 363.79C1613.45 367.153 1615.6 376.631 1616.6 381.052C1622.98 409.148 1642.72 421.015 1656.21 438.817C1635.1 426.478 1624.51 410.514 1614.52 389.01C1609.98 377.888 1611.96 377.684 1609.26 368.161C1603.2 360.925 1580 359.93 1569.13 357.542L1568.94 357.24L1569.26 356.329L1575.65 354.25C1610.1 350.447 1600.95 362.667 1612.6 326.598C1620.09 309.994 1619.94 305.399 1632.37 289.352C1656.5 266.713 1661.61 263.088 1692.5 250.777C1696.74 250.602 1698.8 249.678 1702.75 248.285C1708.69 247.477 1712.61 247.755 1716.74 243.384C1721.13 238.73 1721.69 227.524 1721.23 221.373Z"/><path fill="#F9A017" d="M3229.48 481.316C3235.58 481.287 3242.98 482.311 3248.44 485.212C3255.94 489.207 3258.49 495.226 3260.91 502.979C3259.7 509.406 3258.38 514.666 3254.51 520.028C3250.55 525.517 3244.25 529.936 3237.51 531.023C3234.02 531.18 3230.43 531.405 3226.97 530.892C3220.35 529.913 3213.87 526.871 3209.87 521.378C3203.66 512.875 3204.77 503.109 3206.31 493.337C3213.45 484.809 3218.46 482.873 3229.48 481.316Z"/><path fill="#FEC3FF" fill-opacity="0.015686275" d="M6.03861 247.924C11.4557 273.494 10.5277 292.888 10.4782 318.828L10.3237 381.408L10.0523 591.659L10.0428 642.36C10.0445 650.366 8.77827 668.833 12.7964 674.957C8.87798 675.386 10.1138 675.829 7.40516 673.677C4.05065 666.178 6.35629 650.084 6.33486 641.545L5.8391 571.74L7.08586 326.435C7.08111 302.388 3.65446 271.444 6.03861 247.924Z"/><path fill="#0E9CB6" fill-opacity="0.50980395" d="M1721.02 330.622C1724.51 329.637 1725.29 329.9 1728.89 330.748C1730.78 333.74 1736.19 340.239 1738.9 342.401L1738.82 343.087C1741.49 348.471 1749.3 350.779 1749.54 355.034C1745.38 361.927 1737.42 363.564 1732 370.772C1728.89 375.223 1730.41 408.509 1727.89 420.613C1727.22 414.469 1726.42 397.874 1722.68 393.974C1720.42 386.716 1721.42 385.425 1717.3 378.038C1717.46 372.034 1716.5 369.897 1713.94 364.796C1713.08 362.106 1708.8 356.358 1706.22 354.816C1704.65 350.611 1704.41 349.768 1704.61 345.214C1707.97 337.997 1714.34 334.969 1721.02 330.622ZM1707.06 349.531C1711.8 356.16 1715.95 362.491 1719.22 370.009C1720.89 373.849 1722.64 384.751 1724.83 386.996C1725.44 385.496 1725.96 384.369 1725.85 382.708C1727.65 377.325 1728.96 370.82 1732.79 366.492C1734.92 364.097 1745.83 358.893 1746.17 355.951C1746.2 355.723 1745.59 354.581 1745.47 354.329C1743.32 350.073 1730.17 336.034 1725.67 334.609C1725.01 334.398 1725.16 334.448 1724.49 334.378C1719.51 336.658 1714.57 338.97 1709.41 340.792C1708.52 343.656 1707.47 346.551 1707.06 349.531Z"/><path fill="#FBFFFF" fill-opacity="0.011764706" d="M1724.49 334.378C1725.16 334.448 1725.01 334.398 1725.67 334.609C1730.17 336.034 1743.32 350.073 1745.47 354.329C1745.59 354.581 1746.2 355.723 1746.17 355.951C1745.83 358.893 1734.92 364.097 1732.79 366.492C1728.96 370.82 1727.65 377.325 1725.85 382.708C1725.96 384.369 1725.44 385.496 1724.83 386.996C1722.64 384.751 1720.89 373.849 1719.22 370.009C1715.95 362.491 1711.8 356.16 1707.06 349.531C1707.47 346.551 1708.52 343.656 1709.41 340.792C1714.57 338.97 1719.51 336.658 1724.49 334.378Z"/><path fill="#FEAD01" fill-opacity="0.59215689" d="M1721.23 221.373C1720.78 220.6 1723.95 172.134 1722.84 164.657C1723.3 166.597 1723.5 168.536 1725.01 169.811C1725.92 169.413 1726.75 168.593 1727.53 167.932C1731.01 170.41 1730.53 188.156 1730.78 193.059C1730.55 204.161 1731.15 230.304 1736.67 241.248C1738.55 244.969 1750.69 247.039 1756.16 249.919C1758.69 250.311 1760.04 250.334 1762.09 251.875C1784.67 260.799 1794.4 268.906 1811.15 286.193C1822.29 298.359 1830.62 312.129 1838.34 326.7C1840.69 331.125 1839.4 341.785 1844.1 344.679C1851.28 349.099 1871.63 345.289 1874.4 356.371C1865.09 361.609 1854.83 362.636 1844.28 364.547C1842.36 367.236 1839.66 370.55 1838.77 373.632C1838.31 375.067 1835.44 381.595 1835.43 381.951C1826.91 399.852 1822.66 409.814 1810.52 425.494C1805.99 428.974 1803.41 432.468 1799.17 436.255C1786.38 447.658 1769.5 458.182 1752.81 462.574C1753.03 462.298 1754.81 460.067 1754.81 460.066C1769.61 455.012 1787.75 443.682 1798.98 433.605C1821.04 413.811 1827.22 385.924 1843.35 362.771C1849.31 360.064 1865.81 358.124 1868.01 354.528L1867.44 353.059C1860.38 349.867 1848.44 349.842 1839.95 346.387C1836.39 342.953 1838.86 332.437 1837.02 328.947C1819.31 295.362 1798.73 273.484 1765.05 256.375C1751.28 250.007 1732.68 250.002 1730.52 233.565C1729.33 224.53 1726.86 212.851 1726.12 203.968L1724.49 202.784L1725.47 200.196C1722.7 201.913 1723.7 217.719 1721.23 221.373Z"/><path fill="#FEC3FF" fill-opacity="0.011764706" d="M943.918 532.265L942.723 532.192C936.49 522.811 937.649 338.576 937.513 311.474C945.361 327.723 942.878 363.57 942.892 382.706L942.857 495.67C942.911 503.637 942.83 524.934 943.918 532.265Z"/><path fill="#104A94" d="M1701.57 400.234C1708.4 394.43 1708.88 384.371 1717.3 378.038C1721.42 385.425 1720.42 386.716 1722.68 393.974C1721.02 403.1 1729.08 448.059 1724.19 453.391C1712.32 435.563 1713.42 427.097 1705.71 413.562C1705.39 411.934 1702.44 403.797 1701.57 400.234Z"/><path fill="#0E9CB6" fill-opacity="0.72549021" d="M1727.89 420.613C1730.41 408.509 1728.89 375.223 1732 370.772L1735.44 370.688C1728.44 389.286 1731.88 413.845 1735.11 433.222C1737.27 420.941 1745.26 397.604 1753.22 388.211L1754.81 389.157L1756.22 387.836C1759.42 384.386 1764.34 380.011 1769.08 379.755C1743.3 398.496 1741.62 428.875 1730.88 456.601C1729.85 459.247 1729.22 459.831 1726.87 461.069C1719.47 458.59 1704.6 419.483 1705.71 413.562C1713.42 427.097 1712.32 435.563 1724.19 453.391C1729.08 448.059 1721.02 403.1 1722.68 393.974C1726.42 397.874 1727.22 414.469 1727.89 420.613Z"/><path fill="#118F8A" d="M1735.44 370.688C1743.24 367.603 1755.76 378.459 1756.22 387.836L1754.81 389.157L1753.22 388.211C1745.26 397.604 1737.27 420.941 1735.11 433.222C1731.88 413.845 1728.44 389.286 1735.44 370.688Z"/><path fill="#37A581" fill-opacity="0.98823529" d="M1653.66 249.682C1665.28 247.968 1670.38 251.704 1678.94 250.772C1684.22 250.427 1687.21 250.458 1692.5 250.777C1661.61 263.088 1656.5 266.713 1632.37 289.352C1632.4 287.346 1632.73 284.334 1632.89 282.247C1636.81 270.73 1645.03 258.223 1653.66 249.682Z"/><path fill="#054F89" fill-opacity="0.98823529" d="M1550.45 356.079C1556.65 355.336 1561.84 353.94 1566.9 357.734L1569.13 357.542C1580 359.93 1603.2 360.925 1609.26 368.161C1611.96 377.684 1609.98 377.888 1614.52 389.01C1608.05 383.167 1578.46 367.995 1569.24 363.512C1564.34 361.134 1553.83 359.075 1550.45 356.079Z"/><path fill="#FFE9FF" fill-opacity="0.015686275" d="M2819.05 207.144C2823.86 206.562 2840.91 203.87 2843.86 207.427C2852.28 217.58 2855.46 251.212 2846.67 261.625C2841.07 268.267 2822.67 266.963 2815.27 263.785C2821.77 263.617 2835.62 263.932 2840.72 262.136C2847.29 256.388 2847.18 221.648 2843.98 213.458C2841.77 207.776 2824.73 209.33 2819.73 208.706L2819.05 207.144Z"/><defs><linearGradient id="gradient_1" gradientUnits="userSpaceOnUse" x1="1651.1721" y1="390.59378" x2="1656.8766" y2="375.66083"><stop offset="0" stop-color="white" stop-opacity="0"/><stop offset="1" stop-color="#FFECFF" stop-opacity="0.0078431377"/></linearGradient></defs><path fill="url(#gradient_1)" d="M1658.05 372.261C1666.28 374.955 1675.36 377.94 1683.36 381.202C1676.96 381.689 1670.94 380.087 1665 383.634L1664.64 385.463L1666.84 388.02L1666.28 390.316C1659.7 392.619 1661.03 390.808 1657.18 387.531C1653.84 384.696 1650.27 390.022 1647.1 390.7C1642.6 386.037 1643.26 388.83 1641.78 383.055C1642.77 379.381 1642.85 380.191 1646.16 377.378C1646.96 375.468 1646.85 374.923 1646.58 372.948L1646.5 372.373C1649.89 372.361 1654.78 372.478 1658.05 372.261Z"/><path fill="#FEC3FF" fill-opacity="0.011764706" d="M369.308 411.617C365.82 410.638 365.743 411.19 363.586 408.918C360.794 395.444 358.623 367.819 364.022 354.728C365.118 352.069 366.091 352.454 369.115 351.537C364.573 372.456 365.417 390.602 369.308 411.617Z"/><path fill="#FEC3FF" fill-opacity="0.011764706" d="M2811.23 524.663L2813.03 525.624C2811.77 526.381 2809.3 527.853 2808.05 528.467C2799.78 532.531 2772.22 532.555 2765.58 527.436L2765.86 525.925C2767.11 525.73 2768.52 525.457 2769.75 525.396C2779.62 526.484 2801.7 526.679 2811.23 524.663Z"/></svg>